<?xml version="1.0" encoding="utf-8"?>
<!-- Generator: Adobe Illustrator 21.1.0, SVG Export Plug-In . SVG Version: 6.00 Build 0)  -->
<svg version="1.1" id="Capa_1" xmlns="http://www.w3.org/2000/svg" xmlns:xlink="http://www.w3.org/1999/xlink" x="0px" y="0px"
	 viewBox="0 0 1288 216" style="enable-background:new 0 0 1288 216;" xml:space="preserve">
<style type="text/css">
	.st0{fill:#FFFFFF;}
</style>
<g>
	<path class="st0" d="M115.8,151.8H66.2v-38.3h41.2c4.7,0,8.6-3.8,8.6-8.6s-3.8-8.6-8.6-8.6H66.2V62h49.1c4.7,0,8.6-3.8,8.6-8.6
		v-0.3c0-4.7-3.8-8.6-8.6-8.6H58.4c-5.1,0-9.2,4.1-9.2,9.2v106c0,5.1,4.1,9.2,9.2,9.2h57.5c4.7,0,8.6-3.8,8.6-8.6v-0.2
		C124.4,155.6,120.6,151.8,115.8,151.8z"/>
	<path class="st0" d="M247.4,44.6L247.4,44.6c-6.7,0-12.7,4.2-15,10.5l-31,84.9l-31.1-84.9c-2.3-6.3-8.3-10.5-15-10.5h-0.1
		c-8.8,0-16,7.2-16,16v98c0,5.8,4.7,10.5,10.5,10.5s10.5-4.7,10.5-10.5V128L158,73.2l33.2,89c1.5,4.1,5.4,6.8,9.8,6.8h0.5
		c4.4,0,8.3-2.7,9.8-6.8l33.2-89.1l-2.1,54.9v30.6c0,5.8,4.7,10.5,10.5,10.5h0c5.8,0,10.5-4.7,10.5-10.5v-98
		C263.5,51.7,256.3,44.6,247.4,44.6z"/>
	<path class="st0" d="M468.7,112.7c7.8-6.8,11.7-16.3,11.7-28.5c0-11.9-4-21.5-11.9-28.8c-8-7.2-18.7-10.9-32.3-10.9h-36.1
		c-5.7,0-10.3,4.6-10.3,10.3v103.7c0,5.8,4.7,10.5,10.5,10.5c5.8,0,10.5-4.7,10.5-10.5v-35.6H436C450,122.9,460.9,119.5,468.7,112.7
		z M410.9,62h25.9c7,0.1,12.5,2.2,16.5,6.2c4,4,6,9.4,6,16.1c0,6.8-2,12.1-5.9,15.7c-3.9,3.6-9.7,5.4-17.1,5.4h-25.3V62z"/>
	<path class="st0" d="M610.6,159.7c2,5.8,7.5,9.6,13.6,9.6c6.1,0,11.5-3.9,13.6-9.6l35.2-100.6c2.5-7-2.7-14.3-10.2-14.3h-0.1
		c-4.7,0-8.8,3-10.3,7.5L624,142.2l-28.1-89.8c-1.4-4.5-5.6-7.5-10.3-7.5h0c-7.4,0-12.6,7.3-10.2,14.3L610.6,159.7z"/>
	<path class="st0" d="M699.7,169.1c5.8,0,10.5-4.7,10.5-10.5V55.1c0-5.8-4.7-10.5-10.5-10.5c-5.8,0-10.5,4.7-10.5,10.5v103.5
		C689.2,164.4,693.9,169.1,699.7,169.1z"/>
	<path class="st0" d="M824.1,143.9v-31.9c0-3.8-3.1-6.9-6.9-6.9h-30.9c-4.5,0-8.2,3.7-8.2,8.2s3.7,8.2,8.2,8.2h16.8V146
		c-4.6,5-12.2,7.5-23,7.5c-9.8,0-17.5-3.7-23-11.1c-5.5-7.4-8.3-17.9-8.3-31.3v-9.6c0.2-13.5,2.7-23.7,7.6-30.7
		c4.9-7,12.1-10.5,21.5-10.5c12.2,0,20.1,5.2,23.7,15.7c1.4,4.1,5.2,6.8,9.5,6.8h0c7,0,12-7,9.5-13.5c-2.5-6.5-6.2-11.9-11-16.1
		c-7.9-6.9-18.6-10.3-32.1-10.3c-15.7,0-27.9,5.3-36.7,15.9c-8.8,10.6-13.2,25.3-13.2,44.1v9.7c0.2,11.7,2.4,22,6.6,30.8
		c4.2,8.8,10.3,15.6,18.1,20.3c7.8,4.7,16.8,7.1,27,7.1c9.9,0,18.7-1.5,26.5-4.5c3.3-1.3,6.3-2.8,9-4.6
		C820.7,157.7,824.1,151,824.1,143.9z"/>
	<path class="st0" d="M932.8,136.8c0-6.4-1.3-12-4-16.7c-2.7-4.8-6.9-9-12.6-12.7c-5.7-3.7-13.3-7-22.7-9.8
		c-9.4-2.9-16.2-5.8-20.3-8.9c-4.1-3-6.2-6.9-6.2-11.4c0-5.4,1.9-9.6,5.7-12.7c3.8-3,9.1-4.5,16-4.5c7.4,0,13.1,1.8,17,5.5
		c2.3,2.1,4,4.8,4.9,7.9c1.3,4.3,5.3,7.4,9.8,7.4c7.3,0,12.3-7.5,9.4-14.2c-0.8-1.9-1.7-3.7-2.9-5.4c-3.8-5.9-9-10.4-15.6-13.6
		c-6.6-3.2-14.1-4.8-22.6-4.8c-12.7,0-23,3.2-31,9.7c-8,6.5-11.9,14.8-11.9,24.8c0,11.5,5.5,20.7,16.6,27.9
		c5.8,3.7,13.5,7.1,23.3,10.1c9.8,3,16.5,6,20.3,9c3.7,3,5.6,7.2,5.6,12.7c0,5-1.8,9-5.5,12.1c-3.7,3.1-9.2,4.6-16.5,4.6
		c-8.5,0-15-1.9-19.6-5.8c-2.8-2.4-4.8-5.5-5.9-9.1c-1.3-4.3-5.3-7.3-9.8-7.3c-7.2,0-12.3,7.3-9.6,14c0.9,2.3,2.1,4.5,3.5,6.5
		c4.1,5.9,9.8,10.5,17.1,13.8s15.4,5,24.2,5c13.3,0,23.8-3.1,31.5-9.2C929,155.4,932.8,147.2,932.8,136.8z"/>
	<path class="st0" d="M335.2,51.2c-1.5-4-5.3-6.7-9.6-6.7h-4.7c-4.3,0-8.1,2.7-9.6,6.7l-38.3,104.1c-2.4,6.6,2.5,13.7,9.6,13.7
		c4.4,0,8.2-2.8,9.6-6.9l7.5-22.1l5.9-17.4L323.2,71l17.6,51.6l5.9,17.4l7.6,22.1c1.4,4.1,5.3,6.9,9.6,6.9h0.1
		c7.1,0,12-7.1,9.6-13.7L335.2,51.2z"/>
	<path class="st0" d="M554.2,140.4l7.6,22.1c1.4,4.1,5.3,6.9,9.6,6.9h0.1c7.1,0,12-7.1,9.6-13.7L543.5,53.7c-2-5.3-7-8.9-12.7-8.9h0
		c-5.7,0-10.8,3.5-12.7,8.9l-37.5,101.9c-2.4,6.6,2.5,13.7,9.6,13.7c4.4,0,8.2-2.8,9.6-6.9l7.5-22.1l5.9-17.4l17.6-51.6l17.6,51.6
		L554.2,140.4z"/>
	<path class="st0" d="M1098.7,170c3.8,0,6.7-1.1,8.7-3.2c2.1-2.1,3.1-4.8,3.1-8.1c0-3.3-1-6.1-3.1-8.3c-2.1-2.2-5-3.3-8.7-3.3
		c-3.7,0-6.6,1.1-8.7,3.3c-2.1,2.2-3.1,4.9-3.1,8.3s1.1,6,3.2,8.1C1092.2,168.9,1095.1,170,1098.7,170z"/>
	<path class="st0" d="M960.9,166.8c2.1-2.1,3.1-4.8,3.1-8.1c0-3.3-1-6.1-3.1-8.3c-2.1-2.2-5-3.3-8.7-3.3c-3.7,0-6.6,1.1-8.7,3.3
		c-2.1,2.2-3.1,4.9-3.1,8.3s1.1,6,3.2,8.1c2.1,2.1,5,3.2,8.6,3.2C956,170,958.9,168.9,960.9,166.8z"/>
	<path class="st0" d="M1136.8,163.7c7.4,4.7,15.9,7.1,25.5,7.1c13.8,0,24.9-3.7,33.2-11.2c5.2-4.7,9.1-10.5,11.5-17.5
		c2.3-6.6-2.7-13.6-9.7-13.6c-4.6,0-8.6,3-9.9,7.4c-1.4,5.1-3.6,9-6.5,11.6c-4.2,3.8-10.4,5.7-18.6,5.7c-9,0-15.9-3.5-20.6-10.6
		c-4.7-7.1-7-17.3-7-30.8v-11c0.1-13.3,2.6-23.4,7.5-30.3c4.9-6.9,11.9-10.3,21.1-10.3c7.9,0,13.9,2,17.9,5.9
		c2.8,2.7,4.9,6.7,6.3,11.8c1.2,4.5,5.3,7.6,9.9,7.6c7,0,11.9-6.8,9.7-13.5c-2.4-7.3-6.3-13.3-11.5-18.1
		c-8.2-7.4-18.9-11.2-32.3-11.2c-9.9,0-18.7,2.4-26.3,7.3c-7.6,4.8-13.4,11.7-17.4,20.7c-4.1,8.9-6.1,19.3-6.1,31v11.6
		c0.2,11.5,2.2,21.5,6.2,30.2C1123.7,152.3,1129.4,159,1136.8,163.7z"/>
	<path class="st0" d="M1230.9,150.5c-2.1-2.2-5-3.3-8.7-3.3c-3.7,0-6.6,1.1-8.7,3.3c-2.1,2.2-3.1,4.9-3.1,8.3s1.1,6,3.2,8.1
		c2.1,2.1,5,3.2,8.6,3.2c3.8,0,6.7-1.1,8.7-3.2s3.1-4.8,3.1-8.1C1234,155.4,1233,152.7,1230.9,150.5z"/>
	<path class="st0" d="M1039.1,53.7c-2-5.3-7-8.9-12.7-8.9c-5.7,0-10.8,3.5-12.7,8.9l-37.5,101.9c-2.4,6.6,2.5,13.7,9.6,13.7
		c4.4,0,8.2-2.8,9.6-6.9l7.5-22.1l3-8.9h40.9l3,8.9l7.6,22.1c1.4,4.1,5.3,6.9,9.6,6.9h0.1c7.1,0,12-7.1,9.6-13.7L1039.1,53.7z
		 M1026.4,71.3l15.1,44.4h-30.2L1026.4,71.3z"/>
</g>
</svg>
