<?xml version="1.0" encoding="utf-8"?>
<!-- Generator: Adobe Illustrator 20.1.0, SVG Export Plug-In . SVG Version: 6.00 Build 0)  -->
<svg version="1.1" id="Capa_1" xmlns="http://www.w3.org/2000/svg" xmlns:xlink="http://www.w3.org/1999/xlink" x="0px" y="0px"
	 viewBox="0 0 273 212.6" style="enable-background:new 0 0 273 212.6;" xml:space="preserve">
<style type="text/css">
	.st0{fill:#FFFFFF;}
</style>
<g>
	<path class="st0" d="M78.3,88h-38v25.8h44.6v15.9H20.6v-96h64.2v16H40.4v22.9h38V88z"/>
	<path class="st0" d="M116.8,95.9v33.8H97v-96h37.4c7.2,0,13.5,1.3,19,4c5.5,2.6,9.7,6.4,12.6,11.2c2.9,4.9,4.4,10.4,4.4,16.6
		c0,9.4-3.2,16.8-9.7,22.2c-6.4,5.4-15.3,8.1-26.7,8.1H116.8z M116.8,79.9h17.7c5.2,0,9.2-1.2,12-3.7c2.7-2.5,4.1-6,4.1-10.5
		c0-4.7-1.4-8.5-4.2-11.4c-2.8-2.9-6.6-4.4-11.5-4.5h-18.1V79.9z"/>
	<path class="st0" d="M229.3,104.5c0-3.7-1.3-6.6-4-8.6c-2.6-2-7.4-4.1-14.2-6.3c-6.9-2.2-12.3-4.4-16.3-6.6
		c-10.9-5.9-16.3-13.8-16.3-23.8c0-5.2,1.5-9.8,4.4-13.9s7.1-7.2,12.6-9.5c5.5-2.3,11.6-3.4,18.4-3.4c6.9,0,13,1.2,18.3,3.7
		c5.4,2.5,9.5,6,12.5,10.5c3,4.5,4.4,9.7,4.4,15.4h-19.8c0-4.4-1.4-7.8-4.2-10.2c-2.8-2.4-6.7-3.7-11.7-3.7c-4.8,0-8.6,1-11.3,3.1
		c-2.7,2-4,4.7-4,8.1c0,3.1,1.6,5.7,4.7,7.8c3.1,2.1,7.8,4.1,13.9,5.9c11.2,3.4,19.4,7.6,24.6,12.6c5.1,5,7.7,11.2,7.7,18.7
		c0,8.3-3.1,14.8-9.4,19.5c-6.3,4.7-14.7,7.1-25.4,7.1c-7.4,0-14.1-1.4-20.2-4.1c-6.1-2.7-10.7-6.4-13.9-11.1
		c-3.2-4.7-4.8-10.2-4.8-16.3h19.8c0,10.6,6.3,15.9,19,15.9c4.7,0,8.4-1,11-2.9C227.9,110.6,229.3,107.9,229.3,104.5z"/>
	<path class="st0" d="M232.5,141h-62.1c-11,0-19.9,8.5-19.9,19.5s9,19.5,19.9,19.5h62.1c11,0,19.9-8.5,19.9-19.5
		S243.5,141,232.5,141z M175.4,169.7c1.1,1.7,2.6,2.5,4.8,2.5c2,0,3.4-0.6,4.4-1.5c1-0.9,1.6-2.6,1.8-4.6h5c-0.3,3-1.4,5.7-3.4,7.4
		c-2,1.7-4.7,2.7-8,2.7c-2.3,0-4.4-0.5-6.1-1.6c-1.8-1.1-2.8-2.6-3.7-4.7c-1-2-1.1-4.4-1.1-7.1v-2.7c0-2.8,0.1-5.2,1.1-7.3
		c1-2.1,2.2-3.7,4-4.8c1.8-1.1,3.8-1.7,6.2-1.7c3.2,0,5.8,0.7,7.7,2.5c2,1.7,3.1,3.3,3.4,7.3h-5c-0.2-3-0.9-3.5-1.8-4.4
		c-1-0.9-2.4-1.3-4.3-1.3c-2.2,0-3.6,0.8-4.7,2.5c-1.2,1.6-1.5,4-1.5,7.1v2.6C174,165.6,174.2,168,175.4,169.7z M198.8,174.9
		c-1.5,0-2.6-1.2-2.6-2.6c0-1.5,1.2-2.6,2.6-2.6c1.5,0,2.6,1.2,2.6,2.6C201.5,173.7,200.3,174.9,198.8,174.9z M226.1,174.1
		c-1.9,1.4-4.4,2.2-7.6,2.2c-2.1,0-4.1-0.4-5.8-1.2c-1.8-0.8-3.1-2.4-4.1-3.7c-1-1.4-1.5-3.3-1.5-5.3h5.1c0,2,0.5,3.4,1.6,4.4
		c1.1,0.9,2.7,1.6,4.7,1.6c1.8,0,3.1-0.2,4-0.9c0.9-0.7,1.3-1.6,1.3-2.8c0-1.3-0.5-2.2-1.4-2.9c-0.9-0.7-2.5-1.4-4.9-2.1
		s-4.2-1.5-5.6-2.4c-2.7-1.7-4-3.8-4-6.5c0-2.4,1-4.3,2.9-5.8s4.4-2.3,7.5-2.3c2,0,3.8,0.4,5.4,1.1c1.6,0.7,2.8,1.2,3.7,2.6
		c0.9,1.4,1.4,3,1.4,4h-5c0-1-0.5-2.1-1.4-3c-1-0.9-2.3-1-4.1-1c-1.7,0-2.9,0.5-3.9,1.2c-0.9,0.7-1.4,1.8-1.4,3c0,1.1,0.5,2,1.5,2.7
		c1,0.7,2.6,1.4,4.9,2.1c2.3,0.7,4.1,1.4,5.5,2.3c1.4,0.9,2.4,1.9,3,3s1,2.4,1,3.9C228.8,170.7,227.9,172.6,226.1,174.1z
		 M235.5,174.9c-1.5,0-2.6-1.2-2.6-2.6c0-1.5,1.2-2.6,2.6-2.6c1.5,0,2.6,1.2,2.6,2.6C238.1,173.7,236.9,174.9,235.5,174.9z"/>
</g>
</svg>
