<?xml version="1.0" encoding="utf-8"?>
<!-- Generator: Adobe Illustrator 20.1.0, SVG Export Plug-In . SVG Version: 6.00 Build 0)  -->
<svg version="1.1" id="Capa_1" xmlns="http://www.w3.org/2000/svg" xmlns:xlink="http://www.w3.org/1999/xlink" x="0px" y="0px"
	 viewBox="0 0 1328.9 217.5" style="enable-background:new 0 0 1328.9 217.5;" xml:space="preserve">
<style type="text/css">
	.st0{fill:#FFFFFF;}
</style>
<g>
	<path class="st0" d="M86.2,148.4H36.6v-38.3h41.2c4.7,0,8.6-3.8,8.6-8.6s-3.8-8.6-8.6-8.6H36.6V58.6h49.1c4.7,0,8.6-3.8,8.6-8.6
		v-0.3c0-4.7-3.8-8.6-8.6-8.6H28.8c-5.1,0-9.2,4.1-9.2,9.2v106c0,5.1,4.1,9.2,9.2,9.2h57.5c4.7,0,8.6-3.8,8.6-8.6v-0.2
		C94.8,152.2,91,148.4,86.2,148.4z"/>
	<path class="st0" d="M217.8,41.2L217.8,41.2c-6.7,0-12.7,4.2-15,10.5l-31,84.9l-31.1-84.9c-2.3-6.3-8.3-10.5-15-10.5h-0.1
		c-8.8,0-16,7.2-16,16v98c0,5.8,4.7,10.5,10.5,10.5s10.5-4.7,10.5-10.5v-30.6l-2.1-54.8l33.2,89c1.5,4.1,5.4,6.8,9.8,6.8h0.5
		c4.4,0,8.3-2.7,9.8-6.8L215,69.7l-2.1,54.9v30.6c0,5.8,4.7,10.5,10.5,10.5l0,0c5.8,0,10.5-4.7,10.5-10.5v-98
		C233.9,48.3,226.7,41.2,217.8,41.2z"/>
	<path class="st0" d="M439.1,109.3c7.8-6.8,11.7-16.3,11.7-28.5c0-11.9-4-21.5-11.9-28.8c-8-7.2-18.7-10.9-32.3-10.9h-36.1
		c-5.7,0-10.3,4.6-10.3,10.3v103.7c0,5.8,4.7,10.5,10.5,10.5s10.5-4.7,10.5-10.5v-35.6h25.2C420.4,119.5,431.3,116.1,439.1,109.3z
		 M381.3,58.6h25.9c7,0.1,12.5,2.2,16.5,6.2s6,9.4,6,16.1c0,6.8-2,12.1-5.9,15.7s-9.7,5.4-17.1,5.4h-25.3V58.6H381.3z"/>
	<path class="st0" d="M581,156.3c2,5.8,7.5,9.6,13.6,9.6s11.5-3.9,13.6-9.6l35.2-100.6c2.5-7-2.7-14.3-10.2-14.3h-0.1
		c-4.7,0-8.8,3-10.3,7.5l-28.4,89.9L566.3,49c-1.4-4.5-5.6-7.5-10.3-7.5l0,0c-7.4,0-12.6,7.3-10.2,14.3L581,156.3z"/>
	<path class="st0" d="M670.1,165.7c5.8,0,10.5-4.7,10.5-10.5V51.7c0-5.8-4.7-10.5-10.5-10.5s-10.5,4.7-10.5,10.5v103.5
		C659.6,161,664.3,165.7,670.1,165.7z"/>
	<path class="st0" d="M794.5,140.5v-31.9c0-3.8-3.1-6.9-6.9-6.9h-30.9c-4.5,0-8.2,3.7-8.2,8.2s3.7,8.2,8.2,8.2h16.8v24.5
		c-4.6,5-12.2,7.5-23,7.5c-9.8,0-17.5-3.7-23-11.1c-5.5-7.4-8.3-17.9-8.3-31.3v-9.6c0.2-13.5,2.7-23.7,7.6-30.7
		c4.9-7,12.1-10.5,21.5-10.5c12.2,0,20.1,5.2,23.7,15.7c1.4,4.1,5.2,6.8,9.5,6.8l0,0c7,0,12-7,9.5-13.5s-6.2-11.9-11-16.1
		c-7.9-6.9-18.6-10.3-32.1-10.3c-15.7,0-27.9,5.3-36.7,15.9S698,80.7,698,99.5v9.7c0.2,11.7,2.4,22,6.6,30.8
		c4.2,8.8,10.3,15.6,18.1,20.3s16.8,7.1,27,7.1c9.9,0,18.7-1.5,26.5-4.5c3.3-1.3,6.3-2.8,9-4.6C791.1,154.3,794.5,147.6,794.5,140.5
		z"/>
	<path class="st0" d="M1012.5,133.5c0-6.4-1.3-12-4-16.7c-2.7-4.8-6.9-9-12.6-12.7c-5.7-3.7-13.3-7-22.7-9.8
		c-9.4-2.9-16.2-5.8-20.3-8.9c-4.1-3-6.2-6.9-6.2-11.4c0-5.4,1.9-9.6,5.7-12.7c3.8-3,9.1-4.5,16-4.5c7.4,0,13.1,1.8,17,5.5
		c2.3,2.1,4,4.8,4.9,7.9c1.3,4.3,5.3,7.4,9.8,7.4c7.3,0,12.3-7.5,9.4-14.2c-0.8-1.9-1.7-3.7-2.9-5.4c-3.8-5.9-9-10.4-15.6-13.6
		s-14.1-4.8-22.6-4.8c-12.7,0-23,3.2-31,9.7s-11.9,14.8-11.9,24.8c0,11.5,5.5,20.7,16.6,27.9c5.8,3.7,13.5,7.1,23.3,10.1
		s16.5,6,20.3,9c3.7,3,5.6,7.2,5.6,12.7c0,5-1.8,9-5.5,12.1s-9.2,4.6-16.5,4.6c-8.5,0-15-1.9-19.6-5.8c-2.8-2.4-4.8-5.5-5.9-9.1
		c-1.3-4.3-5.3-7.3-9.8-7.3c-7.2,0-12.3,7.3-9.6,14c0.9,2.3,2.1,4.5,3.5,6.5c4.1,5.9,9.8,10.5,17.1,13.8s15.4,5,24.2,5
		c13.3,0,23.8-3.1,31.5-9.2C1008.7,152.1,1012.5,143.9,1012.5,133.5z"/>
	<path class="st0" d="M900.5,133.4c0-6.4-1.3-12-4-16.7c-2.7-4.8-6.9-9-12.6-12.7c-5.7-3.7-13.3-7-22.7-9.8
		c-9.4-2.9-16.2-5.8-20.3-8.9c-4.1-3-6.2-6.9-6.2-11.4c0-5.4,1.9-9.6,5.7-12.7c3.8-3,9.1-4.5,16-4.5c7.4,0,13.1,1.8,17,5.5
		c2.3,2.1,4,4.8,4.9,7.9c1.3,4.3,5.3,7.4,9.8,7.4c7.3,0,12.3-7.5,9.4-14.2c-0.8-1.9-1.7-3.7-2.9-5.4c-3.8-5.9-9-10.4-15.6-13.6
		s-14.1-4.8-22.6-4.8c-12.7,0-23,3.2-31,9.7S813.5,64,813.5,74c0,11.5,5.5,20.7,16.6,27.9c5.8,3.7,13.5,7.1,23.3,10.1s16.5,6,20.3,9
		c3.7,3,5.6,7.2,5.6,12.7c0,5-1.8,9-5.5,12.1s-9.2,4.6-16.5,4.6c-8.5,0-15-1.9-19.6-5.8c-2.8-2.4-4.8-5.5-5.9-9.1
		c-1.3-4.3-5.3-7.3-9.8-7.3c-7.2,0-12.3,7.3-9.6,14c0.9,2.3,2.1,4.5,3.5,6.5c4.1,5.9,9.8,10.5,17.1,13.8s15.4,5,24.2,5
		c13.3,0,23.8-3.1,31.5-9.2C896.7,152,900.5,143.8,900.5,133.4z"/>
	<path class="st0" d="M305.6,47.8c-1.5-4-5.3-6.7-9.6-6.7h-4.7c-4.3,0-8.1,2.7-9.6,6.7l-38.3,104.1c-2.4,6.6,2.5,13.7,9.6,13.7
		c4.4,0,8.2-2.8,9.6-6.9l7.5-22.1l5.9-17.4l17.6-51.6l17.6,51.6l5.9,17.4l7.6,22.1c1.4,4.1,5.3,6.9,9.6,6.9h0.1
		c7.1,0,12-7.1,9.6-13.7L305.6,47.8z"/>
	<path class="st0" d="M524.6,137l7.6,22.1c1.4,4.1,5.3,6.9,9.6,6.9h0.1c7.1,0,12-7.1,9.6-13.7l-37.6-102c-2-5.3-7-8.9-12.7-8.9l0,0
		c-5.7,0-10.8,3.5-12.7,8.9L451,152.2c-2.4,6.6,2.5,13.7,9.6,13.7c4.4,0,8.2-2.8,9.6-6.9l7.5-22.1l5.9-17.4l17.6-51.6l17.6,51.6
		L524.6,137z"/>
	<path class="st0" d="M1178.4,166.6c3.8,0,6.7-1.1,8.7-3.2c2.1-2.1,3.1-4.8,3.1-8.1s-1-6.1-3.1-8.3s-5-3.3-8.7-3.3s-6.6,1.1-8.7,3.3
		s-3.1,4.9-3.1,8.3s1.1,6,3.2,8.1C1171.9,165.5,1174.8,166.6,1178.4,166.6z"/>
	<path class="st0" d="M1040.6,163.4c2.1-2.1,3.1-4.8,3.1-8.1s-1-6.1-3.1-8.3s-5-3.3-8.7-3.3c-3.7,0-6.6,1.1-8.7,3.3
		s-3.1,4.9-3.1,8.3s1.1,6,3.2,8.1c2.1,2.1,5,3.2,8.6,3.2C1035.7,166.6,1038.6,165.5,1040.6,163.4z"/>
	<path class="st0" d="M1216.5,160.4c7.4,4.7,15.9,7.1,25.5,7.1c13.8,0,24.9-3.7,33.2-11.2c5.2-4.7,9.1-10.5,11.5-17.5
		c2.3-6.6-2.7-13.6-9.7-13.6c-4.6,0-8.6,3-9.9,7.4c-1.4,5.1-3.6,9-6.5,11.6c-4.2,3.8-10.4,5.7-18.6,5.7c-9,0-15.9-3.5-20.6-10.6
		s-7-17.3-7-30.8v-11c0.1-13.3,2.6-23.4,7.5-30.3s11.9-10.3,21.1-10.3c7.9,0,13.9,2,17.9,5.9c2.8,2.7,4.9,6.7,6.3,11.8
		c1.2,4.5,5.3,7.6,9.9,7.6c7,0,11.9-6.8,9.7-13.5c-2.4-7.3-6.3-13.3-11.5-18.1c-8.2-7.4-18.9-11.2-32.3-11.2
		c-9.9,0-18.7,2.4-26.3,7.3c-7.6,4.8-13.4,11.7-17.4,20.7c-4.1,8.9-6.1,19.3-6.1,31V110c0.2,11.5,2.2,21.5,6.2,30.2
		C1203.4,149,1209.1,155.7,1216.5,160.4z"/>
	<path class="st0" d="M1310.6,147.2c-2.1-2.2-5-3.3-8.7-3.3s-6.6,1.1-8.7,3.3s-3.1,4.9-3.1,8.3s1.1,6,3.2,8.1s5,3.2,8.6,3.2
		c3.8,0,6.7-1.1,8.7-3.2s3.1-4.8,3.1-8.1C1313.7,152.1,1312.7,149.4,1310.6,147.2z"/>
	<path class="st0" d="M1118.8,50.4c-2-5.3-7-8.9-12.7-8.9c-5.7,0-10.8,3.5-12.7,8.9l-37.5,101.9c-2.4,6.6,2.5,13.7,9.6,13.7
		c4.4,0,8.2-2.8,9.6-6.9l7.5-22.1l3-8.9h40.9l3,8.9l7.6,22.1c1.4,4.1,5.3,6.9,9.6,6.9h0.1c7.1,0,12-7.1,9.6-13.7L1118.8,50.4z
		 M1106.1,68l15.1,44.4H1091L1106.1,68z"/>
</g>
</svg>
