<?xml version="1.0" encoding="utf-8"?>
<!-- Generator: Adobe Illustrator 21.1.0, SVG Export Plug-In . SVG Version: 6.00 Build 0)  -->
<svg version="1.1" id="Capa_1" xmlns="http://www.w3.org/2000/svg" xmlns:xlink="http://www.w3.org/1999/xlink" x="0px" y="0px"
	 viewBox="0 0 390 236" style="enable-background:new 0 0 390 236;" xml:space="preserve">
<style type="text/css">
	.st0{fill:#FFFFFF;}
</style>
<path class="st0" d="M115.8,134.8H66.2V96.5h41.2c4.7,0,8.6-3.8,8.6-8.6s-3.8-8.6-8.6-8.6H66.2V45h49.1c4.7,0,8.6-3.8,8.6-8.6v-0.3
	c0-4.7-3.8-8.6-8.6-8.6H58.4c-5.1,0-9.2,4.1-9.2,9.2v106c0,5.1,4.1,9.2,9.2,9.2h57.5c4.7,0,8.6-3.8,8.6-8.6v-0.2
	C124.4,138.6,120.6,134.8,115.8,134.8z"/>
<path class="st0" d="M224.7,95.7c7.8-6.8,11.7-16.3,11.7-28.5c0-11.9-4-21.5-11.9-28.8c-8-7.2-18.7-10.9-32.3-10.9h-36.1
	c-5.7,0-10.3,4.6-10.3,10.3v103.7c0,5.8,4.7,10.5,10.5,10.5c5.8,0,10.5-4.7,10.5-10.5v-35.6H192C206,105.9,216.9,102.5,224.7,95.7z
	 M166.9,45h25.9c7,0.1,12.5,2.2,16.5,6.2c4,4,6,9.4,6,16.1c0,6.8-2,12.1-5.9,15.7c-3.9,3.6-9.7,5.4-17.1,5.4h-25.3V45z"/>
<path class="st0" d="M342.8,119.8c0-6.4-1.3-12-4-16.7c-2.7-4.8-6.9-9-12.6-12.7c-5.7-3.7-13.3-7-22.7-9.8
	c-9.4-2.9-16.2-5.8-20.3-8.9c-4.1-3-6.2-6.9-6.2-11.4c0-5.4,1.9-9.6,5.7-12.7c3.8-3,9.1-4.5,16-4.5c7.4,0,13.1,1.8,17,5.5
	c2.3,2.1,4,4.8,4.9,7.9c1.3,4.3,5.3,7.4,9.8,7.4c7.3,0,12.3-7.5,9.4-14.2c-0.8-1.9-1.7-3.7-2.9-5.4c-3.8-5.9-9-10.4-15.6-13.6
	c-6.6-3.2-14.1-4.8-22.6-4.8c-12.7,0-23,3.2-31,9.7c-8,6.5-11.9,14.8-11.9,24.8c0,11.5,5.5,20.7,16.6,27.9
	c5.8,3.7,13.5,7.1,23.3,10.1c9.8,3,16.5,6,20.3,9c3.7,3,5.6,7.2,5.6,12.7c0,5-1.8,9-5.5,12.1c-3.7,3.1-9.2,4.6-16.5,4.6
	c-8.5,0-15-1.9-19.6-5.8c-2.8-2.4-4.8-5.5-5.9-9.1c-1.3-4.3-5.3-7.3-9.8-7.3c-7.2,0-12.3,7.3-9.6,14c0.9,2.3,2.1,4.5,3.5,6.5
	c4.1,5.9,9.8,10.5,17.1,13.8s15.4,5,24.2,5c13.3,0,23.8-3.1,31.5-9.2C339,138.4,342.8,130.2,342.8,119.8z"/>
<path class="st0" d="M248.8,196.3c0-2-0.4-3.7-1.3-5.2c-0.8-1.5-2.1-2.8-3.9-4c-1.8-1.2-4.2-2.2-7.1-3.1c-3-0.9-5.1-1.8-6.4-2.8
	c-1.3-1-1.9-2.1-1.9-3.6c0-1.7,0.6-3,1.8-4c1.2-0.9,2.9-1.4,5-1.4c2.3,0,4.1,0.6,5.3,1.7c0.7,0.7,1.2,1.5,1.5,2.5
	c0.4,1.4,1.6,2.3,3.1,2.3c2.3,0,3.8-2.3,2.9-4.4c-0.2-0.6-0.5-1.1-0.9-1.7c-1.2-1.8-2.8-3.3-4.9-4.3c-2.1-1-4.4-1.5-7.1-1.5
	c-4,0-7.2,1-9.7,3.1c-2.5,2-3.7,4.6-3.7,7.8c0,3.6,1.7,6.5,5.2,8.7c1.8,1.2,4.2,2.2,7.3,3.2c3.1,0.9,5.2,1.9,6.3,2.8
	c1.2,0.9,1.8,2.2,1.8,4c0,1.6-0.6,2.8-1.7,3.8c-1.2,1-2.9,1.4-5.2,1.4c-2.7,0-4.7-0.6-6.1-1.8c-0.9-0.8-1.5-1.7-1.8-2.9
	c-0.4-1.4-1.7-2.3-3.1-2.3c-2.3,0-3.9,2.3-3,4.4c0.3,0.7,0.7,1.4,1.1,2c1.3,1.8,3.1,3.3,5.4,4.3c2.3,1,4.8,1.6,7.6,1.6
	c4.1,0,7.4-1,9.9-2.9C247.5,202.1,248.8,199.5,248.8,196.3z"/>
<path class="st0" d="M300.7,206.6c1.2,0,2.1-0.3,2.7-1c0.6-0.7,1-1.5,1-2.5c0-1-0.3-1.9-1-2.6c-0.6-0.7-1.6-1-2.7-1
	c-1.2,0-2.1,0.3-2.7,1c-0.6,0.7-1,1.5-1,2.6s0.3,1.9,1,2.5C298.6,206.3,299.5,206.6,300.7,206.6z"/>
<path class="st0" d="M257.6,205.6c0.6-0.7,1-1.5,1-2.5c0-1-0.3-1.9-1-2.6c-0.6-0.7-1.6-1-2.7-1c-1.2,0-2.1,0.3-2.7,1
	c-0.6,0.7-1,1.5-1,2.6s0.3,1.9,1,2.5c0.7,0.7,1.6,1,2.7,1C256,206.6,256.9,206.3,257.6,205.6z"/>
<path class="st0" d="M312.6,204.7c2.3,1.5,5,2.2,8,2.2c4.3,0,7.8-1.2,10.4-3.5c1.6-1.5,2.8-3.3,3.6-5.5c0.7-2.1-0.8-4.2-3-4.2
	c-1.4,0-2.7,0.9-3.1,2.3c-0.4,1.6-1.1,2.8-2,3.6c-1.3,1.2-3.2,1.8-5.8,1.8c-2.8,0-5-1.1-6.4-3.3c-1.5-2.2-2.2-5.4-2.2-9.6V185
	c0-4.2,0.8-7.3,2.4-9.5c1.5-2.2,3.7-3.2,6.6-3.2c2.5,0,4.3,0.6,5.6,1.9c0.9,0.9,1.5,2.1,2,3.7c0.4,1.4,1.6,2.4,3.1,2.4
	c2.2,0,3.7-2.1,3-4.2c-0.8-2.3-2-4.2-3.6-5.7c-2.6-2.3-5.9-3.5-10.1-3.5c-3.1,0-5.8,0.8-8.2,2.3c-2.4,1.5-4.2,3.7-5.5,6.5
	c-1.3,2.8-1.9,6-1.9,9.7v3.6c0.1,3.6,0.7,6.7,2,9.4C308.5,201.1,310.3,203.2,312.6,204.7z"/>
<path class="st0" d="M342,200.5c-0.6-0.7-1.6-1-2.7-1c-1.2,0-2.1,0.3-2.7,1c-0.6,0.7-1,1.5-1,2.6s0.3,1.9,1,2.5c0.7,0.7,1.6,1,2.7,1
	c1.2,0,2.1-0.3,2.7-1c0.6-0.7,1-1.5,1-2.5C343,202.1,342.7,201.2,342,200.5z"/>
<path class="st0" d="M282,170.3c-0.6-1.7-2.2-2.8-4-2.8c-1.8,0-3.4,1.1-4,2.8l-11.7,31.9c-0.8,2.1,0.8,4.3,3,4.3
	c1.4,0,2.6-0.9,3-2.2l2.3-6.9l0.9-2.8h12.8l0.9,2.8l2.4,6.9c0.4,1.3,1.7,2.2,3,2.2h0c2.2,0,3.8-2.2,3-4.3L282,170.3z M278,175.7
	l4.7,13.9h-9.4L278,175.7z"/>
</svg>
