<?xml version="1.0" encoding="utf-8"?>
<!-- Generator: Adobe Illustrator 20.1.0, SVG Export Plug-In . SVG Version: 6.00 Build 0)  -->
<svg version="1.1" id="Capa_1" xmlns="http://www.w3.org/2000/svg" xmlns:xlink="http://www.w3.org/1999/xlink" x="0px" y="0px"
	 viewBox="0 0 960 212.6" style="enable-background:new 0 0 960 212.6;" xml:space="preserve">
<style type="text/css">
	.st0{fill:#FFFFFF;}
</style>
<g>
	<g>
		<path class="st0" d="M88.5,84.2h-38V110h44.6v15.9H30.8v-96H95v16H50.6v22.9h38V84.2z"/>
		<path class="st0" d="M152.8,29.9l24.7,69.6L202,29.9h26v96h-19.8V99.7l2-45.3l-25.9,71.5h-13.6l-25.8-71.5l2,45.2v26.2H127v-96
			H152.8z"/>
		<path class="st0" d="M320.8,106.1h-34.7l-6.6,19.8h-21l35.7-96h18.3l35.9,96h-21L320.8,106.1z M291.5,90.1h24l-12.1-35.9
			L291.5,90.1z"/>
		<path class="st0" d="M397.5,92.1v33.8h-19.8v-96h37.4c7.2,0,13.5,1.3,19,4c5.5,2.6,9.7,6.4,12.6,11.2c2.9,4.9,4.4,10.4,4.4,16.6
			c0,9.4-3.2,16.8-9.7,22.2c-6.4,5.4-15.3,8.1-26.7,8.1H397.5z M397.5,76.1h17.7c5.2,0,9.2-1.2,12-3.7c2.7-2.5,4.1-6,4.1-10.5
			c0-4.7-1.4-8.5-4.2-11.4c-2.8-2.9-6.6-4.4-11.5-4.5h-18.1V76.1z"/>
		<path class="st0" d="M527.5,106.1h-34.7l-6.6,19.8h-21l35.7-96h18.3l35.9,96h-21L527.5,106.1z M498.2,90.1h24l-12.1-35.9
			L498.2,90.1z"/>
		<path class="st0" d="M614.8,102.1l21.8-72.2h22l-33.4,96h-20.6l-33.3-96h21.9L614.8,102.1z"/>
		<path class="st0" d="M708.8,125.9h-19.8v-96h19.8V125.9z"/>
		<path class="st0" d="M823.4,113.8c-3.6,4.3-8.6,7.6-15.1,9.9c-6.5,2.4-13.7,3.5-21.6,3.5c-8.3,0-15.6-1.8-21.8-5.4
			c-6.3-3.6-11.1-8.9-14.5-15.8c-3.4-6.9-5.2-15-5.2-24.3v-6.5c0-9.6,1.6-17.9,4.8-24.9c3.2-7,7.9-12.4,14-16.1
			c6.1-3.7,13.2-5.6,21.4-5.6c11.4,0,20.3,2.7,26.7,8.1c6.4,5.4,10.2,13.3,11.4,23.7h-19.2c-0.9-5.5-2.8-9.5-5.8-12.1
			c-3-2.5-7.2-3.8-12.4-3.8c-6.7,0-11.8,2.5-15.4,7.6c-3.5,5.1-5.3,12.6-5.3,22.5v6.1c0,10.1,1.9,17.7,5.7,22.8
			c3.8,5.1,9.4,7.7,16.8,7.7c7.4,0,12.7-1.6,15.9-4.7V90.1h-18V75.5h37.8V113.8z"/>
		<path class="st0" d="M909.4,100.7c0-3.7-1.3-6.6-4-8.6c-2.6-2-7.4-4.1-14.2-6.3c-6.9-2.2-12.3-4.4-16.3-6.6
			c-10.9-5.9-16.3-13.8-16.3-23.8c0-5.2,1.5-9.8,4.4-13.9c2.9-4.1,7.1-7.2,12.6-9.5c5.5-2.3,11.6-3.4,18.4-3.4
			c6.9,0,13,1.2,18.3,3.7c5.4,2.5,9.5,6,12.5,10.5c3,4.5,4.4,9.7,4.4,15.4h-19.8c0-4.4-1.4-7.8-4.2-10.2c-2.8-2.4-6.7-3.7-11.7-3.7
			c-4.8,0-8.6,1-11.3,3.1c-2.7,2-4,4.7-4,8.1c0,3.1,1.6,5.7,4.7,7.8c3.1,2.1,7.8,4.1,13.9,5.9c11.2,3.4,19.4,7.6,24.6,12.6
			c5.1,5,7.7,11.2,7.7,18.7c0,8.3-3.1,14.8-9.4,19.5c-6.3,4.7-14.7,7.1-25.4,7.1c-7.4,0-14.1-1.4-20.2-4.1
			c-6.1-2.7-10.7-6.4-13.9-11.1c-3.2-4.7-4.8-10.2-4.8-16.3h19.8c0,10.6,6.3,15.9,19,15.9c4.7,0,8.4-1,11-2.9
			C908.1,106.8,909.4,104.2,909.4,100.7z"/>
	</g>
	<g>
		<path class="st0" d="M171.5,174.1c-0.3,3.1-1.4,5.5-3.4,7.3c-2,1.7-4.7,2.6-8,2.6c-2.3,0-4.4-0.6-6.1-1.7
			c-1.8-1.1-3.1-2.7-4.1-4.7c-1-2-1.5-4.4-1.5-7.1v-2.7c0-2.8,0.5-5.2,1.5-7.3c1-2.1,2.4-3.7,4.2-4.8c1.8-1.1,3.9-1.7,6.3-1.7
			c3.2,0,5.8,0.9,7.8,2.6c2,1.7,3.1,4.2,3.4,7.4h-5c-0.2-2.1-0.9-3.6-1.8-4.5s-2.4-1.4-4.3-1.4c-2.2,0-3.9,0.8-5.1,2.4
			c-1.2,1.6-1.8,4-1.8,7.1v2.6c0,3.2,0.6,5.6,1.7,7.2c1.1,1.7,2.8,2.5,5,2.5c2,0,3.5-0.4,4.5-1.3s1.6-2.4,1.9-4.5H171.5z"/>
		<path class="st0" d="M208.8,176.8h-11.3l-2.4,6.8h-5.3l11-29.2h4.5l11,29.2h-5.3L208.8,176.8z M198.9,172.7h8.5l-4.2-12.1
			L198.9,172.7z"/>
		<path class="st0" d="M254.8,158.5h-9.1v25.1h-5v-25.1h-9v-4.1h23.1V158.5z"/>
		<path class="st0" d="M289,176.8h-11.3l-2.4,6.8h-5.3l11-29.2h4.5l11,29.2h-5.3L289,176.8z M279.1,172.7h8.5l-4.2-12.1L279.1,172.7
			z"/>
		<path class="st0" d="M331.6,176.1c0-1.3-0.5-2.3-1.4-3s-2.5-1.4-4.9-2.1c-2.4-0.7-4.2-1.5-5.6-2.4c-2.7-1.7-4-3.8-4-6.5
			c0-2.4,1-4.3,2.9-5.8s4.4-2.3,7.5-2.3c2,0,3.8,0.4,5.4,1.1c1.6,0.7,2.8,1.8,3.7,3.2c0.9,1.4,1.4,2.9,1.4,4.6h-5
			c0-1.5-0.5-2.7-1.4-3.5c-1-0.9-2.3-1.3-4.1-1.3c-1.7,0-2.9,0.4-3.9,1.1c-0.9,0.7-1.4,1.7-1.4,3c0,1.1,0.5,2,1.5,2.7
			c1,0.7,2.6,1.4,4.9,2.1c2.3,0.7,4.1,1.4,5.5,2.3c1.4,0.9,2.4,1.8,3,3c0.6,1.1,1,2.4,1,3.9c0,2.4-0.9,4.4-2.8,5.8
			c-1.9,1.4-4.4,2.2-7.6,2.2c-2.1,0-4-0.4-5.8-1.2c-1.8-0.8-3.1-1.9-4.1-3.2c-1-1.4-1.5-3-1.5-4.8h5.1c0,1.7,0.5,2.9,1.6,3.8
			c1.1,0.9,2.7,1.4,4.7,1.4c1.8,0,3.1-0.4,4-1.1S331.6,177.2,331.6,176.1z"/>
		<path class="st0" d="M378.6,158.5h-9.1v25.1h-5v-25.1h-9v-4.1h23.1V158.5z"/>
		<path class="st0" d="M409.6,172.3h-5.6v11.2h-5.1v-29.2h10.3c3.4,0,6,0.8,7.8,2.3c1.8,1.5,2.7,3.7,2.7,6.6c0,2-0.5,3.6-1.4,4.9
			c-0.9,1.3-2.3,2.3-3.9,3l6.6,12.1v0.3h-5.4L409.6,172.3z M403.9,168.3h5.2c1.7,0,3-0.4,4-1.3s1.4-2,1.4-3.5c0-1.6-0.4-2.8-1.3-3.6
			c-0.9-0.9-2.2-1.3-4-1.3h-5.3V168.3z"/>
		<path class="st0" d="M457.2,176.8h-11.3l-2.4,6.8h-5.3l11-29.2h4.5l11,29.2h-5.3L457.2,176.8z M447.3,172.7h8.5l-4.2-12.1
			L447.3,172.7z"/>
		<path class="st0" d="M489.7,179.5h13.2v4.1h-18.3v-29.2h5.1V179.5z"/>
		<path class="st0" d="M591.7,176.1c0-1.3-0.5-2.3-1.4-3c-0.9-0.7-2.5-1.4-4.9-2.1s-4.2-1.5-5.6-2.4c-2.7-1.7-4-3.8-4-6.5
			c0-2.4,1-4.3,2.9-5.8s4.4-2.3,7.5-2.3c2,0,3.8,0.4,5.4,1.1c1.6,0.7,2.8,1.8,3.7,3.2c0.9,1.4,1.4,2.9,1.4,4.6h-5
			c0-1.5-0.5-2.7-1.4-3.5c-1-0.9-2.3-1.3-4.1-1.3c-1.7,0-2.9,0.4-3.9,1.1c-0.9,0.7-1.4,1.7-1.4,3c0,1.1,0.5,2,1.5,2.7
			c1,0.7,2.6,1.4,4.9,2.1c2.3,0.7,4.1,1.4,5.5,2.3s2.4,1.8,3,3c0.6,1.1,1,2.4,1,3.9c0,2.4-0.9,4.4-2.8,5.8c-1.9,1.4-4.4,2.2-7.6,2.2
			c-2.1,0-4.1-0.4-5.8-1.2c-1.8-0.8-3.1-1.9-4.1-3.2c-1-1.4-1.5-3-1.5-4.8h5.1c0,1.7,0.5,2.9,1.6,3.8c1.1,0.9,2.7,1.4,4.7,1.4
			c1.8,0,3.1-0.4,4-1.1S591.7,177.2,591.7,176.1z"/>
		<path class="st0" d="M627.2,168.2l6.7-13.8h5.6l-9.8,18.4v10.7h-5.1v-10.7l-9.8-18.4h5.6L627.2,168.2z"/>
		<path class="st0" d="M674,176.1c0-1.3-0.5-2.3-1.4-3c-0.9-0.7-2.5-1.4-4.9-2.1s-4.2-1.5-5.6-2.4c-2.7-1.7-4-3.8-4-6.5
			c0-2.4,1-4.3,2.9-5.8c1.9-1.5,4.4-2.3,7.5-2.3c2,0,3.8,0.4,5.4,1.1c1.6,0.7,2.8,1.8,3.7,3.2c0.9,1.4,1.4,2.9,1.4,4.6h-5
			c0-1.5-0.5-2.7-1.4-3.5c-1-0.9-2.3-1.3-4.1-1.3c-1.7,0-2.9,0.4-3.9,1.1c-0.9,0.7-1.4,1.7-1.4,3c0,1.1,0.5,2,1.5,2.7
			c1,0.7,2.6,1.4,4.9,2.1c2.3,0.7,4.1,1.4,5.5,2.3s2.4,1.8,3,3c0.6,1.1,1,2.4,1,3.9c0,2.4-0.9,4.4-2.8,5.8c-1.9,1.4-4.4,2.2-7.6,2.2
			c-2.1,0-4.1-0.4-5.8-1.2c-1.8-0.8-3.1-1.9-4.1-3.2c-1-1.4-1.5-3-1.5-4.8h5.1c0,1.7,0.5,2.9,1.6,3.8c1.1,0.9,2.7,1.4,4.7,1.4
			c1.8,0,3.1-0.4,4-1.1C673.5,178.2,674,177.2,674,176.1z"/>
		<path class="st0" d="M721,158.5h-9.1v25.1h-5v-25.1h-9v-4.1H721V158.5z"/>
		<path class="st0" d="M758.3,170.5h-12v8.9h14v4.1h-19.1v-29.2h18.9v4.1h-13.9v8.1h12V170.5z"/>
		<path class="st0" d="M787.4,154.4l8.4,22.4l8.4-22.4h6.6v29.2h-5v-9.6l0.5-12.9l-8.6,22.5H794l-8.6-22.5l0.5,12.8v9.6h-5v-29.2
			H787.4z"/>
	</g>
</g>
</svg>
