<?xml version="1.0" encoding="utf-8"?>
<!-- Generator: Adobe Illustrator 20.1.0, SVG Export Plug-In . SVG Version: 6.00 Build 0)  -->
<svg version="1.1" id="Capa_1" xmlns="http://www.w3.org/2000/svg" xmlns:xlink="http://www.w3.org/1999/xlink" x="0px" y="0px"
	 viewBox="0 0 1328.9 217.5" style="enable-background:new 0 0 1328.9 217.5;" xml:space="preserve">
<style type="text/css">
	.st0{fill:#FFFFFF;}
</style>
<g>
	<path class="st0" d="M234.7,173.2c2.2,0,4,0.3,5.4,0.7c1.4,0.6,2.6,1.1,3.9,1.9l1.1,5.4l2.8-0.3l-1-6.5c-1.5-1.2-3.3-2.4-5.3-3.1
		c-1.9-0.7-4.4-1.1-7.4-1.1c-3.2,0-6.1,0.8-8.6,2.5c-2.5,1.7-4.6,3.9-6,6.8c-1.5,2.8-2.2,6-2.2,9.4c0,5.3,1.7,9.6,4.9,13.2
		c3.2,3.6,7.5,5.3,12.8,5.3c5,0,8.9-1,11.7-3.1l1-6.5l-2.8-0.3l-1.1,5.3c-1.2,0.7-2.5,1.1-3.7,1.2c-1.2,0.3-2.8,0.4-4.4,0.4
		c-4.6,0-8.2-1.5-10.8-4.4c-2.6-2.9-3.9-6.7-3.9-11.2s1.2-8.3,3.9-11.2C227.2,174.7,230.5,173.2,234.7,173.2z"/>
	<path class="st0" d="M270.1,170.8h-9.7v2.8h6L254.1,204h-3.5v2.8H263V204h-5.7l3.1-7.8h16.2l2.9,7.8h-5.3v2.8h12.3V204H283
		L270.1,170.8z M261.5,193.7l7.2-18.2h0.3l6.9,18.2H261.5z"/>
	<polygon class="st0" points="315,170.8 285.5,170.8 284.5,181.5 287.3,181.8 288.4,173.7 298.7,173.7 298.7,204.1 292.3,204.1 
		292.3,206.9 308.4,206.9 308.4,204.1 301.8,204.1 301.8,173.7 312.1,173.7 313.2,181.8 316.1,181.5 	"/>
	<path class="st0" d="M333.6,170.8h-9.7v2.8h6L317.7,204h-3.3v2.8h12.3V204H321l3.1-7.8h16.2l2.9,7.8h-5.3v2.8h12.3V204h-3.6
		L333.6,170.8z M324.9,193.7l7.2-18.2h0.3l6.9,18.2H324.9z"/>
	<path class="st0" d="M369.8,188.1c-1.8-0.6-3.5-1.1-5.1-1.5c-2.1-0.6-4-1.2-5.8-1.9c-1.8-0.8-2.6-2.5-2.6-4.9
		c0-2.1,0.7-3.7,2.2-4.9c1.5-1.1,3.5-1.7,6-1.7c1.1,0,2.4,0.1,3.6,0.3c1.2,0.1,2.5,0.6,3.6,1.1l0.6,5.7l2.6-0.3l-0.3-6.9
		c-1.1-0.8-2.8-1.5-4.7-1.9c-1.9-0.6-4-0.7-5.8-0.7c-3.1,0-5.7,0.8-7.8,2.5c-2.1,1.7-3.2,4-3.2,7.2c0,2.4,0.6,4.2,1.7,5.3
		c1.1,1.2,2.5,2.1,4.2,2.6c1.7,0.6,3.3,1.1,5,1.4c2.4,0.6,4.4,1.2,6.4,2.1c1.9,1,3.1,2.8,3.1,5.7c0,2.6-1,4.4-2.8,5.7
		c-1.8,1.1-4,1.7-6.5,1.7c-1.5,0-2.9-0.1-4.2-0.4c-1.4-0.3-2.6-0.7-3.7-1.2l0.3-4.6l-2.6-0.3l-0.7,6.7c1.1,0.8,2.6,1.4,4.7,1.9
		c1.9,0.6,4.2,0.8,6.5,0.8c3.5,0,6.4-0.8,8.9-2.6c2.5-1.8,3.6-4.3,3.6-7.8c0-2.6-0.7-4.7-1.9-6C373.3,189.7,371.6,188.7,369.8,188.1
		z"/>
	<polygon class="st0" points="381.2,170.8 380.1,181.5 382.9,181.8 384,173.7 394.2,173.7 394.2,204.1 387.9,204.1 387.9,206.9 
		404,206.9 404,204.1 397.4,204.1 397.4,173.7 407.7,173.7 408.8,181.8 411.7,181.5 410.6,170.8 	"/>
	<path class="st0" d="M434.8,190.9c2.6-0.7,4.7-1.9,6-3.7c1.2-1.8,1.9-3.9,1.9-6.2c0-2.8-1-5.1-2.8-7.1c-1.8-1.9-5-2.9-9.4-2.9
		h-15.4v2.8h4.7v30.4h-4.7v2.8h13v-2.8H423v-12.6h8.5l7.9,15.5h6.7v-2.8h-4.6L434.8,190.9z M430.6,188.8h-7.4v-15.1h7.2
		c3.2,0,5.5,0.6,6.9,1.8c1.4,1.2,2.2,3.1,2.2,5.5c0,2.4-0.7,4.3-2.1,5.7C436.1,188.1,433.8,188.8,430.6,188.8z"/>
	<path class="st0" d="M466.1,170.8h-9.7v2.8h6L450.2,204h-3.3v2.8h12.3V204h-5.7l3.1-7.8h16.1l2.9,7.8h-5.3v2.8h12.3V204H479
		L466.1,170.8z M457.4,193.7l7.2-18.2h0.3l6.9,18.2H457.4z"/>
	<polygon class="st0" points="507.5,204.1 492.5,204.1 492.5,173.7 498.7,173.7 498.7,170.8 484.6,170.8 484.6,173.7 489.3,173.7 
		489.3,204.1 484.6,204.1 484.6,206.9 510.4,206.9 511.5,195.8 508.6,195.5 	"/>
	<path class="st0" d="M544.2,188.1c-1.8-0.6-3.5-1.1-5.1-1.5c-2.1-0.6-4-1.2-5.8-1.9c-1.8-0.8-2.6-2.5-2.6-4.9
		c0-2.1,0.7-3.7,2.2-4.9c1.5-1.1,3.5-1.7,6-1.7c1.1,0,2.4,0.1,3.6,0.3c1.2,0.1,2.5,0.6,3.6,1.1l0.6,5.7l2.6-0.3l-0.3-6.9
		c-1.1-0.8-2.8-1.5-4.7-1.9c-1.9-0.6-4-0.7-5.8-0.7c-3.1,0-5.7,0.8-7.8,2.5c-2.1,1.7-3.2,4-3.2,7.2c0,2.4,0.6,4.2,1.7,5.3
		c1.1,1.2,2.5,2.1,4.2,2.6c1.7,0.6,3.3,1.1,5,1.4c2.4,0.6,4.4,1.2,6.4,2.1c1.9,1,3.1,2.8,3.1,5.7c0,2.6-1,4.4-2.8,5.7
		c-1.8,1.1-4,1.7-6.5,1.7c-1.5,0-2.9-0.1-4.2-0.4c-1.4-0.3-2.6-0.7-3.7-1.2l0.3-4.6l-2.6-0.3l-0.7,6.7c1.1,0.8,2.6,1.4,4.7,1.9
		c1.9,0.6,4.2,0.8,6.5,0.8c3.5,0,6.4-0.8,8.9-2.6c2.5-1.8,3.6-4.3,3.6-7.8c0-2.6-0.7-4.7-1.9-6C547.6,189.7,546,188.7,544.2,188.1z"
		/>
	<polygon class="st0" points="574.5,173.7 579.9,173.7 570.3,190.2 570,190.2 560.2,173.7 565.6,173.7 565.6,170.8 553,170.8 
		553,173.7 556.6,173.7 568.5,193.3 568.5,204.1 562.1,204.1 562.1,206.9 578.1,206.9 578.1,204.1 571.7,204.1 571.7,193.3 
		583.1,173.7 586.7,173.7 586.7,170.8 574.5,170.8 	"/>
	<path class="st0" d="M606.4,188.1c-1.8-0.6-3.5-1.1-5.1-1.5c-2.1-0.6-4-1.2-5.8-1.9c-1.8-0.8-2.6-2.5-2.6-4.9
		c0-2.1,0.7-3.7,2.2-4.9c1.5-1.1,3.5-1.7,6-1.7c1.1,0,2.4,0.1,3.6,0.3c1.2,0.1,2.5,0.6,3.6,1.1l0.6,5.7l2.6-0.3l-0.3-6.9
		c-1.1-0.8-2.8-1.5-4.7-1.9c-1.9-0.6-4-0.7-5.8-0.7c-3.1,0-5.7,0.8-7.8,2.5s-3.2,4-3.2,7.2c0,2.4,0.6,4.2,1.7,5.3
		c1.1,1.2,2.5,2.1,4.2,2.6c1.7,0.6,3.3,1.1,5,1.4c2.4,0.6,4.4,1.2,6.4,2.1c1.9,1,3.1,2.8,3.1,5.7c0,2.6-1,4.4-2.8,5.7
		c-1.8,1.1-4,1.7-6.5,1.7c-1.5,0-2.9-0.1-4.2-0.4c-1.4-0.3-2.6-0.7-3.7-1.2l0.3-4.6l-2.6-0.3l-0.7,6.7c1.1,0.8,2.6,1.4,4.7,1.9
		c1.9,0.6,4.2,0.8,6.5,0.8c3.5,0,6.4-0.8,8.9-2.6c2.5-1.8,3.6-4.3,3.6-7.8c0-2.6-0.7-4.7-1.9-6C609.7,189.7,608.2,188.7,606.4,188.1
		z"/>
	<polygon class="st0" points="617.6,170.8 616.5,181.5 619.4,181.8 620.5,173.7 630.8,173.7 630.8,204.1 624.4,204.1 624.4,206.9 
		640.4,206.9 640.4,204.1 633.9,204.1 633.9,173.7 644.1,173.7 645.2,181.8 648.2,181.5 647,170.8 	"/>
	<polygon class="st0" points="675.5,204.1 659.7,204.1 659.7,189.9 677.1,189.9 677.1,187.2 659.7,187.2 659.7,173.7 674.9,173.7 
		676,181.3 678.8,180.9 677.7,170.8 651.8,170.8 651.8,173.7 656.5,173.7 656.5,204.1 651.8,204.1 651.8,206.9 678.3,206.9 
		679.4,196.7 676.6,196.5 	"/>
	<polygon class="st0" points="706.6,200.6 706.3,200.6 691.9,170.8 684.2,170.8 684.2,173.7 689.1,173.7 689.1,204.1 684.4,204.1 
		684.4,206.9 696.7,206.9 696.7,204.1 692.1,204.1 692.1,178.6 692.4,178.6 705.3,205.3 707.3,205.3 720,178.7 720.3,178.7 
		720.3,204.1 715.7,204.1 715.7,206.9 728.2,206.9 728.2,204.1 723.5,204.1 723.5,173.7 728.3,173.7 728.3,170.8 720.6,170.8 	"/>
	<rect x="747.4" y="192.9" class="st0" width="12.8" height="2.8"/>
	<path class="st0" d="M799.9,187.6v-0.3c1.8-0.4,3.2-1.2,4.4-2.8c1.1-1.4,1.7-3.2,1.7-5.1c0-2.6-0.8-4.7-2.6-6.4
		c-1.8-1.5-4.4-2.4-8.2-2.4h-16.1v2.8h4.7v30.4h-4.7v2.8h16.4c4,0,6.9-1,9-2.9c2.1-1.9,3.1-4.3,3.1-7.2c0-2.4-0.6-4.3-1.8-6
		C804.4,189.1,802.6,188,799.9,187.6z M787,173.7h7.8c2.5,0,4.4,0.4,5.8,1.4s1.9,2.6,1.9,5.1c0,2.2-0.8,3.9-2.4,5
		c-1.5,1.1-3.5,1.7-5.5,1.7h-7.8v-13.2H787z M801.6,202.3c-1.7,1.1-3.9,1.8-6.5,1.8h-8v-14.6h9.6c2.5,0,4.4,0.7,5.7,1.9
		c1.2,1.2,1.9,3.1,1.9,5.1C804.1,199.2,803.3,201.2,801.6,202.3z"/>
	<polygon class="st0" points="830.5,173.7 835.9,173.7 826.3,190.2 826,190.2 816,173.7 821.6,173.7 821.6,170.8 808.8,170.8 
		808.8,173.7 812.6,173.7 824.5,193.3 824.5,204.1 818.1,204.1 818.1,206.9 834.1,206.9 834.1,204.1 827.5,204.1 827.5,193.3 
		839.1,173.7 842.7,173.7 842.7,170.8 830.5,170.8 	"/>
	<path class="st0" d="M872.9,170.2c-5.7,0-10.1,1.8-13.5,5.4c-3.3,3.6-5,8-5,13.3c0,5,1.5,9.4,4.7,13c3.2,3.6,7.6,5.5,13.6,5.5
		c5.8,0,10.4-1.8,13.7-5.5c3.3-3.6,4.9-8,4.9-13.2s-1.7-9.4-4.9-13C883.2,172,878.7,170.2,872.9,170.2z M880.8,197.6
		c-1.7,2.2-4.2,3.3-7.8,3.3c-3.7,0-6.5-1.2-8.2-3.6c-1.7-2.4-2.5-5.3-2.5-8.6c0-3.5,0.8-6.2,2.5-8.5c1.7-2.2,4.3-3.5,7.9-3.5
		c3.3,0,6,1.1,7.8,3.2c1.8,2.1,2.6,5.1,2.6,9C883.2,192.6,882.5,195.4,880.8,197.6z"/>
	<path class="st0" d="M914.4,186.2c-1.9-0.6-3.7-1-5.1-1.2c-1.7-0.4-3.1-0.8-4.3-1.4c-1.2-0.6-1.9-1.7-1.9-3.2
		c0-1.2,0.6-2.2,1.5-2.8c1-0.6,2.2-0.8,3.7-0.8c0.8,0,1.8,0.1,2.8,0.3c1,0.3,1.9,0.7,2.8,1.2l0.6,4.2l6-0.6l-0.3-7.8
		c-1.1-1.2-2.8-2.2-5-2.9c-2.1-0.7-4.4-1.1-6.8-1.1c-3.2,0-6.2,0.8-9,2.5c-2.8,1.7-4.2,4.4-4.2,8.5c0,2.6,0.6,4.6,1.8,5.8
		c1.2,1.2,2.6,2.2,4.4,2.8c1.8,0.6,3.5,1,5.3,1.2c1.9,0.4,3.7,0.8,5.3,1.5c1.5,0.7,2.2,2.1,2.2,4c0,1.8-0.7,2.9-1.9,3.5
		c-1.2,0.6-2.9,0.7-4.9,0.7c-0.7,0-1.4,0-2.2-0.1s-1.9-0.6-3.2-1.2v-4.4l-6-0.6l-1.1,8.9c1.4,1.2,3.3,2.2,5.7,2.8
		c2.4,0.7,4.9,1,7.4,1c4.4,0,7.9-1,10.4-2.9c2.5-1.9,3.7-4.9,3.7-8.6c0-3.1-0.7-5.3-2.2-6.8C918,187.7,916.3,186.8,914.4,186.2z"/>
	<path class="st0" d="M943,176.9c1.2,0,2.5,0.1,3.9,0.6c1.4,0.3,2.5,0.8,3.5,1.4l0.8,4.7l6.1-0.6l-0.8-8.3c-1.1-1.1-2.8-2.1-5-2.9
		c-2.2-1-4.9-1.4-7.9-1.4c-4.6,0-8.2,1-10.8,3.1c-2.6,2.1-4.6,4.6-5.8,7.5c-1.2,2.9-1.8,5.8-1.8,8.6c0,5.4,1.8,9.7,5.3,13
		c3.5,3.3,7.8,5,12.9,5c2.6,0,5.1-0.4,7.8-1.2c2.6-0.8,4.4-1.8,5.7-3.2l0.7-8.5l-6.1-0.6l-0.8,5.4c-1.7,1-4,1.5-6.9,1.5
		c-3.1,0-5.7-1-7.6-2.8c-1.9-1.9-3.1-4.9-3.1-9.2c0-4,1-6.9,2.8-9C937.4,177.9,939.9,176.9,943,176.9z"/>
	<path class="st0" d="M981,170.8h-12.3v6.4h5l-10.3,23.4H960v6.4h14.2v-6.4h-3.3l1.5-3.6h12.2l1.4,3.6h-2.9v6.4h14.4v-6.4H994
		L981,170.8z M974.5,191.6l4-10.1h0.3l3.7,10.1H974.5z"/>
	<path class="st0" d="M1022.9,191.6c2.1-0.8,3.7-2.1,5-3.7c1.2-1.7,1.9-3.7,1.9-6.1c0-3.6-1.2-6.4-3.6-8.2
		c-2.4-1.8-5.8-2.8-10.3-2.8h-16.4v6.4h3.9v23.4h-3.9v6.4h15.3v-6.4h-3.9v-7.5h4.9l7.2,13.7h9.2v-6.4h-4.3L1022.9,191.6z
		 M1020.3,185.9c-1,1-2.9,1.4-5.8,1.4h-3.6v-10.1h3.6c2.6,0,4.6,0.3,5.7,1c1.1,0.7,1.7,1.9,1.7,3.7S1021.4,185,1020.3,185.9z"/>
	<path class="st0" d="M1061.9,170.8h-16.5v6.4h3.9v23.4h-3.9v6.4h16.9v-6.4h-5.5v-5.8h5.5c3.6,0,6.7-1,9.3-3.1c2.6-2.1,4-5.1,4-9.2
		c0-3.6-1.1-6.5-3.5-8.6C1069.8,171.9,1066.3,170.8,1061.9,170.8z M1066.2,186.9c-1,1.1-2.8,1.7-5.3,1.7h-4.2v-11.4h4.3
		c2.5,0,4.2,0.4,5.1,1.4c1,1,1.5,2.4,1.5,4.2C1067.6,184.4,1067.2,185.9,1066.2,186.9z"/>
	<polygon class="st0" points="1099.8,200.6 1089.6,200.6 1089.6,191.9 1104.8,191.9 1104.8,185.6 1089.6,185.6 1089.6,177.2 
		1099.5,177.2 1100.6,181.9 1107,181.3 1105.9,170.8 1078.3,170.8 1078.3,177.2 1082.1,177.2 1082.1,200.6 1078.3,200.6 
		1078.3,206.9 1106.1,206.9 1107.3,196.3 1100.9,195.8 	"/>
	<path class="st0" d="M1134.6,191.6c2.1-0.8,3.7-2.1,5-3.7c1.2-1.7,1.9-3.7,1.9-6.1c0-3.6-1.2-6.4-3.6-8.2
		c-2.4-1.8-5.8-2.8-10.3-2.8h-16.4v6.4h3.9v23.4h-3.9v6.4h15.3v-6.4h-3.9v-7.5h4.9l7.2,13.7h9.2v-6.4h-4.3L1134.6,191.6z
		 M1132,185.9c-1,1-2.9,1.4-5.8,1.4h-3.6v-10.1h3.6c2.6,0,4.6,0.3,5.7,1c1.1,0.7,1.7,1.9,1.7,3.7
		C1133.5,183.7,1132.9,185,1132,185.9z"/>
	<polygon class="st0" points="1167.3,177.2 1168.4,182.5 1174.8,181.9 1173.7,170.8 1146.7,170.8 1146.7,177.2 1150.5,177.2 
		1150.5,200.6 1146.7,200.6 1146.7,206.9 1163.9,206.9 1163.9,200.6 1157.9,200.6 1157.9,193.6 1173.2,193.6 1173.2,187.3 
		1157.9,187.3 1157.9,177.2 	"/>
	<polygon class="st0" points="1199.7,200.6 1189.4,200.6 1189.4,191.9 1204.7,191.9 1204.7,185.6 1189.4,185.6 1189.4,177.2 
		1199.2,177.2 1200.4,181.9 1206.7,181.3 1205.6,170.8 1178.2,170.8 1178.2,177.2 1182,177.2 1182,200.6 1178.2,200.6 1178.2,206.9 
		1205.9,206.9 1207,196.3 1200.8,195.8 	"/>
	<path class="st0" d="M1228.4,176.9c1.2,0,2.5,0.1,3.9,0.6c1.4,0.3,2.5,0.8,3.5,1.4l0.8,4.7l6.1-0.6l-0.8-8.3
		c-1.1-1.1-2.8-2.1-5-2.9c-2.2-1-4.9-1.4-7.9-1.4c-4.6,0-8.2,1-10.8,3.1c-2.6,2.1-4.6,4.6-5.8,7.5c-1.2,2.9-1.8,5.8-1.8,8.6
		c0,5.4,1.8,9.7,5.3,13c3.5,3.3,7.8,5,12.9,5c2.6,0,5.1-0.4,7.8-1.2c2.6-0.8,4.4-1.8,5.7-3.2l0.7-8.5l-6.1-0.6l-0.8,5.4
		c-1.7,1-4,1.5-6.9,1.5c-3.1,0-5.7-1-7.6-2.8c-1.9-1.9-3.1-4.9-3.1-9.2c0-4,1-6.9,2.8-9C1222.7,177.9,1225.2,176.9,1228.4,176.9z"/>
	<polygon class="st0" points="1246.8,170.8 1245.7,183 1252.1,183.6 1253.2,177.2 1258.9,177.2 1258.9,200.6 1253.4,200.6 
		1253.4,206.9 1272.2,206.9 1272.2,200.6 1266.4,200.6 1266.4,177.2 1272.1,177.2 1273.2,183.6 1279.4,183 1278.3,170.8 	"/>
	<path class="st0" d="M1300.5,170.2c-5.7,0-10.1,1.8-13.5,5.4c-3.3,3.6-5,8-5,13.3c0,5,1.5,9.4,4.7,13c3.2,3.6,7.6,5.5,13.6,5.5
		c5.8,0,10.4-1.8,13.7-5.5c3.3-3.6,4.9-8,4.9-13.2s-1.7-9.4-4.9-13C1310.8,172,1306.4,170.2,1300.5,170.2z M1308.4,197.6
		c-1.7,2.2-4.2,3.3-7.8,3.3c-3.7,0-6.5-1.2-8.2-3.6c-1.7-2.4-2.5-5.3-2.5-8.6c0-3.5,0.8-6.2,2.5-8.5c1.7-2.2,4.3-3.5,7.9-3.5
		c3.3,0,6,1.1,7.8,3.2c1.8,2.1,2.6,5.1,2.6,9C1310.8,192.6,1310.1,195.4,1308.4,197.6z"/>
	<path class="st0" d="M86.2,123.2H36.6V84.9h41.2c4.7,0,8.6-3.8,8.6-8.6s-3.8-8.6-8.6-8.6H36.6V33.4h49.1c4.7,0,8.6-3.8,8.6-8.6
		v-0.3c0-4.7-3.8-8.6-8.6-8.6H28.8c-5.1,0-9.2,4.1-9.2,9.2v106c0,5.1,4.1,9.2,9.2,9.2h57.5c4.7,0,8.6-3.8,8.6-8.6v-0.2
		C94.8,127,91,123.2,86.2,123.2z"/>
	<path class="st0" d="M217.8,16L217.8,16c-6.7,0-12.7,4.2-15,10.5l-31,84.9l-31.1-84.9c-2.3-6.3-8.3-10.5-15-10.5h-0.1
		c-8.8,0-16,7.2-16,16v98c0,5.8,4.7,10.5,10.5,10.5s10.5-4.7,10.5-10.5V99.4l-2.1-54.8l33.2,89c1.5,4.1,5.4,6.8,9.8,6.8h0.5
		c4.4,0,8.3-2.7,9.8-6.8L215,44.5l-2.1,54.9V130c0,5.8,4.7,10.5,10.5,10.5l0,0c5.8,0,10.5-4.7,10.5-10.5V32
		C233.9,23.1,226.7,16,217.8,16z"/>
	<path class="st0" d="M439.1,84.1c7.8-6.8,11.7-16.3,11.7-28.5c0-11.9-4-21.5-11.9-28.8c-8-7.2-18.7-10.9-32.3-10.9h-36.1
		c-5.7,0-10.3,4.6-10.3,10.3v103.7c0,5.8,4.7,10.5,10.5,10.5s10.5-4.7,10.5-10.5V94.3h25.2C420.4,94.3,431.3,90.9,439.1,84.1z
		 M381.3,33.4h25.9c7,0.1,12.5,2.2,16.5,6.2s6,9.4,6,16.1c0,6.8-2,12.1-5.9,15.7s-9.7,5.4-17.1,5.4h-25.3V33.4H381.3z"/>
	<path class="st0" d="M581,131.1c2,5.8,7.5,9.6,13.6,9.6s11.5-3.9,13.6-9.6l35.2-100.6c2.5-7-2.7-14.3-10.2-14.3h-0.1
		c-4.7,0-8.8,3-10.3,7.5l-28.4,89.9l-28.1-89.8c-1.4-4.5-5.6-7.5-10.3-7.5l0,0c-7.4,0-12.6,7.3-10.2,14.3L581,131.1z"/>
	<path class="st0" d="M670.1,140.5c5.8,0,10.5-4.7,10.5-10.5V26.5c0-5.8-4.7-10.5-10.5-10.5s-10.5,4.7-10.5,10.5V130
		C659.6,135.8,664.3,140.5,670.1,140.5z"/>
	<path class="st0" d="M794.5,115.3V83.4c0-3.8-3.1-6.9-6.9-6.9h-30.9c-4.5,0-8.2,3.7-8.2,8.2s3.7,8.2,8.2,8.2h16.8v24.5
		c-4.6,5-12.2,7.5-23,7.5c-9.8,0-17.5-3.7-23-11.1c-5.5-7.4-8.3-17.9-8.3-31.3v-9.6c0.2-13.5,2.7-23.7,7.6-30.7
		c4.9-7,12.1-10.5,21.5-10.5c12.2,0,20.1,5.2,23.7,15.7c1.4,4.1,5.2,6.8,9.5,6.8l0,0c7,0,12-7,9.5-13.5s-6.2-11.9-11-16.1
		c-7.9-6.9-18.6-10.3-32.1-10.3c-15.7,0-27.9,5.3-36.7,15.9S698,55.5,698,74.3V84c0.2,11.7,2.4,22,6.6,30.8
		c4.2,8.8,10.3,15.6,18.1,20.3s16.8,7.1,27,7.1c9.9,0,18.7-1.5,26.5-4.5c3.3-1.3,6.3-2.8,9-4.6C791.1,129.1,794.5,122.4,794.5,115.3
		z"/>
	<path class="st0" d="M1012.5,108.3c0-6.4-1.3-12-4-16.7c-2.7-4.8-6.9-9-12.6-12.7c-5.7-3.7-13.3-7-22.7-9.8
		c-9.4-2.9-16.2-5.8-20.3-8.9c-4.1-3-6.2-6.9-6.2-11.4c0-5.4,1.9-9.6,5.7-12.7c3.8-3,9.1-4.5,16-4.5c7.4,0,13.1,1.8,17,5.5
		c2.3,2.1,4,4.8,4.9,7.9c1.3,4.3,5.3,7.4,9.8,7.4c7.3,0,12.3-7.5,9.4-14.2c-0.8-1.9-1.7-3.7-2.9-5.4c-3.8-5.9-9-10.4-15.6-13.6
		s-14.1-4.8-22.6-4.8c-12.7,0-23,3.2-31,9.7s-11.9,14.8-11.9,24.8c0,11.5,5.5,20.7,16.6,27.9c5.8,3.7,13.5,7.1,23.3,10.1
		s16.5,6,20.3,9c3.7,3,5.6,7.2,5.6,12.7c0,5-1.8,9-5.5,12.1s-9.2,4.6-16.5,4.6c-8.5,0-15-1.9-19.6-5.8c-2.8-2.4-4.8-5.5-5.9-9.1
		c-1.3-4.3-5.3-7.3-9.8-7.3c-7.2,0-12.3,7.3-9.6,14c0.9,2.3,2.1,4.5,3.5,6.5c4.1,5.9,9.8,10.5,17.1,13.8s15.4,5,24.2,5
		c13.3,0,23.8-3.1,31.5-9.2C1008.7,126.9,1012.5,118.7,1012.5,108.3z"/>
	<path class="st0" d="M900.5,108.2c0-6.4-1.3-12-4-16.7c-2.7-4.8-6.9-9-12.6-12.7c-5.7-3.7-13.3-7-22.7-9.8
		c-9.4-2.9-16.2-5.8-20.3-8.9c-4.1-3-6.2-6.9-6.2-11.4c0-5.4,1.9-9.6,5.7-12.7c3.8-3,9.1-4.5,16-4.5c7.4,0,13.1,1.8,17,5.5
		c2.3,2.1,4,4.8,4.9,7.9c1.3,4.3,5.3,7.4,9.8,7.4c7.3,0,12.3-7.5,9.4-14.2c-0.8-1.9-1.7-3.7-2.9-5.4c-3.8-5.9-9-10.4-15.6-13.6
		s-14.1-4.8-22.6-4.8c-12.7,0-23,3.2-31,9.7s-11.9,14.8-11.9,24.8c0,11.5,5.5,20.7,16.6,27.9c5.8,3.7,13.5,7.1,23.3,10.1
		s16.5,6,20.3,9c3.7,3,5.6,7.2,5.6,12.7c0,5-1.8,9-5.5,12.1s-9.2,4.6-16.5,4.6c-8.5,0-15-1.9-19.6-5.8c-2.8-2.4-4.8-5.5-5.9-9.1
		c-1.3-4.3-5.3-7.3-9.8-7.3c-7.2,0-12.3,7.3-9.6,14c0.9,2.3,2.1,4.5,3.5,6.5c4.1,5.9,9.8,10.5,17.1,13.8s15.4,5,24.2,5
		c13.3,0,23.8-3.1,31.5-9.2C896.7,126.8,900.5,118.6,900.5,108.2z"/>
	<path class="st0" d="M305.6,22.6c-1.5-4-5.3-6.7-9.6-6.7h-4.7c-4.3,0-8.1,2.7-9.6,6.7l-38.3,104.1c-2.4,6.6,2.5,13.7,9.6,13.7
		c4.4,0,8.2-2.8,9.6-6.9l7.5-22.1L276,94l17.6-51.6L311.2,94l5.9,17.4l7.6,22.1c1.4,4.1,5.3,6.9,9.6,6.9h0.1c7.1,0,12-7.1,9.6-13.7
		L305.6,22.6z"/>
	<path class="st0" d="M524.6,111.8l7.6,22.1c1.4,4.1,5.3,6.9,9.6,6.9h0.1c7.1,0,12-7.1,9.6-13.7l-37.6-102c-2-5.3-7-8.9-12.7-8.9
		l0,0c-5.7,0-10.8,3.5-12.7,8.9L451,127c-2.4,6.6,2.5,13.7,9.6,13.7c4.4,0,8.2-2.8,9.6-6.9l7.5-22.1l5.9-17.4l17.6-51.6l17.6,51.6
		L524.6,111.8z"/>
	<path class="st0" d="M1178.4,141.4c3.8,0,6.7-1.1,8.7-3.2c2.1-2.1,3.1-4.8,3.1-8.1c0-3.3-1-6.1-3.1-8.3s-5-3.3-8.7-3.3
		s-6.6,1.1-8.7,3.3s-3.1,4.9-3.1,8.3c0,3.4,1.1,6,3.2,8.1C1171.9,140.3,1174.8,141.4,1178.4,141.4z"/>
	<path class="st0" d="M1040.6,138.2c2.1-2.1,3.1-4.8,3.1-8.1c0-3.3-1-6.1-3.1-8.3s-5-3.3-8.7-3.3c-3.7,0-6.6,1.1-8.7,3.3
		s-3.1,4.9-3.1,8.3c0,3.4,1.1,6,3.2,8.1c2.1,2.1,5,3.2,8.6,3.2C1035.7,141.4,1038.6,140.3,1040.6,138.2z"/>
	<path class="st0" d="M1216.5,135.2c7.4,4.7,15.9,7.1,25.5,7.1c13.8,0,24.9-3.7,33.2-11.2c5.2-4.7,9.1-10.5,11.5-17.5
		c2.3-6.6-2.7-13.6-9.7-13.6c-4.6,0-8.6,3-9.9,7.4c-1.4,5.1-3.6,9-6.5,11.6c-4.2,3.8-10.4,5.7-18.6,5.7c-9,0-15.9-3.5-20.6-10.6
		s-7-17.3-7-30.8v-11c0.1-13.3,2.6-23.4,7.5-30.3s11.9-10.3,21.1-10.3c7.9,0,13.9,2,17.9,5.9c2.8,2.7,4.9,6.7,6.3,11.8
		c1.2,4.5,5.3,7.6,9.9,7.6c7,0,11.9-6.8,9.7-13.5c-2.4-7.3-6.3-13.3-11.5-18.1c-8.2-7.4-18.9-11.2-32.3-11.2
		c-9.9,0-18.7,2.4-26.3,7.3c-7.6,4.8-13.4,11.7-17.4,20.7c-4.1,8.9-6.1,19.3-6.1,31v11.6c0.2,11.5,2.2,21.5,6.2,30.2
		C1203.4,123.8,1209.1,130.5,1216.5,135.2z"/>
	<path class="st0" d="M1310.6,122c-2.1-2.2-5-3.3-8.7-3.3s-6.6,1.1-8.7,3.3s-3.1,4.9-3.1,8.3s1.1,6,3.2,8.1s5,3.2,8.6,3.2
		c3.8,0,6.7-1.1,8.7-3.2s3.1-4.8,3.1-8.1C1313.7,126.9,1312.7,124.2,1310.6,122z"/>
	<path class="st0" d="M1118.8,25.2c-2-5.3-7-8.9-12.7-8.9c-5.7,0-10.8,3.5-12.7,8.9l-37.5,101.9c-2.4,6.6,2.5,13.7,9.6,13.7
		c4.4,0,8.2-2.8,9.6-6.9l7.5-22.1l3-8.9h40.9l3,8.9l7.6,22.1c1.4,4.1,5.3,6.9,9.6,6.9h0.1c7.1,0,12-7.1,9.6-13.7L1118.8,25.2z
		 M1106.1,42.8l15.1,44.4H1091L1106.1,42.8z"/>
</g>
</svg>
